<svg class="header-icon__img header-icon__img-burger" width="69" height="68" viewBox="0 0 69 68" fill="none" xmlns="http://www.w3.org/2000/svg">
                    <path d="M1.10352 60.3242H2.48047V50.8809H1.10352V48.1953H7.19727L11.5625 58.8789L15.6152 48.1953H21.7969V50.8809H20.4199V60.3242H21.7773V63H16.2402V60.3242H17.2559V51.8086L12.8223 62.8242H10.0781L5.56641 52.1016V60.3242H6.66992V63H1.10352V60.3242ZM24.0137 48.1953H35.791V53.2441H32.6074V51.1445H28.8086V54.0645H31.748V56.8965H28.8086V60.3242H32.6074V57.6973H35.791V63H24.0137V60.3242H25.5664V51.1445H24.0137V48.1953ZM46.8457 48.1953H52.4707V50.8809H51.2695V63H48.0273L41.8652 53.4297V60.3242H43.1055V63H37.4902V60.3242H38.7109V50.8809H37.5098V48.1953H41.9824L48.1055 57.8926V50.8809H46.8457V48.1953ZM53.4668 48.1953H59.4043V50.8809H58.0469V57.0234C58.0469 57.5833 58.1087 58.0586 58.2324 58.4492C58.3626 58.8398 58.5417 59.1589 58.7695 59.4062C58.9974 59.6536 59.2676 59.8359 59.5801 59.9531C59.8926 60.0638 60.2344 60.1191 60.6055 60.1191C60.9896 60.1191 61.3379 60.0703 61.6504 59.9727C61.9694 59.875 62.2396 59.709 62.4609 59.4746C62.6888 59.2337 62.8613 58.9147 62.9785 58.5176C63.1022 58.1204 63.1641 57.6224 63.1641 57.0234V50.8809H61.5918V48.1953H67.5293V50.8809H66.3477V56.6426C66.3477 57.6842 66.1979 58.612 65.8984 59.4258C65.599 60.2331 65.1855 60.9167 64.6582 61.4766C64.1374 62.0365 63.5221 62.4629 62.8125 62.7559C62.1094 63.0488 61.3542 63.1953 60.5469 63.1953C59.7461 63.1953 58.9974 63.0521 58.3008 62.7656C57.6042 62.4727 56.9954 62.0527 56.4746 61.5059C55.9603 60.9525 55.5534 60.2819 55.2539 59.4941C54.9544 58.7064 54.8047 57.8145 54.8047 56.8184V50.8809H53.4668V48.1953Z" fill="black"></path>
                    <line x1="7" y1="1" x2="62" y2="1" stroke="black" stroke-width="2"></line>
                    <line x1="7" y1="17" x2="62" y2="17" stroke="black" stroke-width="2"></line>
                    <line x1="7" y1="33" x2="62" y2="33" stroke="black" stroke-width="2"></line>
                  </svg>