<svg xmlns="http://www.w3.org/2000/svg" viewBox="0 0 150.36 142.56">
          <title>footer_logo</title>
          <g>
            <g>
              <path d="M36.79,116l-2,12.36c-.15,1.06-.35,1.48-.58,1.48s-.43-.41-.58-1.48l-2-12.36H28l4.38,26.33h3.5L40.29,116Z" fill="#fff"></path>
              <path d="M21.5,116v26.35H18V116Z" fill="#fff"></path>
              <path d="M3.85,138.85c-.29,0-.36-.15-.35-.44V116H0v0H0v26.33H12.86v-3.5Z" fill="#fff"></path>
              <path d="M54,130.93H50.8a.39.39,0,0,0-.44.44v7a.39.39,0,0,0,.44.44h7.27v3.5H46.86V116H58.06v3.5H50.8a.39.39,0,0,0-.44.44v7a.39.39,0,0,0,.44.44H54Z" fill="#fff"></path>
              <path d="M90.18,130.93H87a.39.39,0,0,0-.44.44v7a.39.39,0,0,0,.44.44h7.27v3.5H83V116H94.24v3.5H87a.39.39,0,0,0-.44.44v7a.39.39,0,0,0,.44.44h3.21Z" fill="#fff"></path>
              <path d="M146.31,130.93H143.1a.39.39,0,0,0-.44.44v7a.39.39,0,0,0,.44.44h7.27v3.5h-11.2V116h11.2v3.5H143.1a.39.39,0,0,0-.44.44v7a.39.39,0,0,0,.44.44h3.21Z" fill="#fff"></path>
              <path d="M108.34,130.63a.52.52,0,0,0,.59.33q.35-.08.35-.55V116h3.5v26.35h-3.5l-4.43-14a.46.46,0,0,0-.54-.25c-.2.06-.3.24-.29.54v13.7h-3.5V116H104Z" fill="#fff"></path>
              <path d="M76.2,123.78H72.43v-.87c0-1.78-.74-3.25-2.66-3.25s-2.54,1.7-2.54,3.48c0,2.08.18,2.48,2.14,3.28l2.88,1.17c3.32,1.29,3.95,3.13,3.95,7.06,0,4.54-1.62,7.91-6.49,7.91a6.28,6.28,0,0,1-6.42-6.39v-1.44H67v1.21a2.51,2.51,0,0,0,2.66,2.76c2.55,0,2.73-1.55,2.73-4,0-2.87-.33-3-2.18-3.77l-2.69-1.13c-3.25-1.36-4.1-3.24-4.1-6.61,0-4.09,2.14-7.38,6.46-7.38a6.23,6.23,0,0,1,6.27,6.09Z" fill="#fff"></path>
              <path d="M132.32,123.78h-3.76v-.87c0-1.78-.74-3.25-2.66-3.25s-2.55,1.7-2.55,3.48c0,2.08.18,2.48,2.14,3.28l2.88,1.17c3.32,1.29,3.95,3.13,3.95,7.06,0,4.54-1.62,7.91-6.49,7.91a6.28,6.28,0,0,1-6.42-6.39v-1.44h3.76v1.21a2.52,2.52,0,0,0,2.66,2.76c2.54,0,2.73-1.55,2.73-4,0-2.87-.33-3-2.18-3.77l-2.69-1.13c-3.25-1.36-4.09-3.24-4.09-6.61,0-4.09,2.14-7.38,6.46-7.38a6.23,6.23,0,0,1,6.27,6.09Z" fill="#fff"></path>
            </g>
            <path d="M100.93,63.75c-2.2-7.26-6.95-13-11.71-18.41,0,0-3.4,4.87-5,7.33-.85,1.27-3.58,5-3.58,5A74.09,74.09,0,0,1,86,65.47,12,12,0,0,1,75.33,83.09h0A12,12,0,0,1,64.67,65.47C66.48,62,75.19,51,75.32,50.79h0c2.12-2.67,5.53-7.59,8.27-12a70.53,70.53,0,0,1-8.23-12.35.23.23,0,0,1,0-.1.21.21,0,0,1,0-.1A29,29,0,0,1,79.09,21c2.14-2.49,4.65-5,5.67-8.34A8.28,8.28,0,0,0,85.12,10a10,10,0,0,0-9.9-10h-.09a10,10,0,0,0-9.9,10,8.3,8.3,0,0,0,.37,2.66c1,3.37,3.52,5.85,5.67,8.34A29,29,0,0,1,75,26.27a.25.25,0,0,1,0,.1.27.27,0,0,1,0,.11A76.31,76.31,0,0,1,64.67,41.32C58.91,48,52.18,54.68,49.43,63.75a22.35,22.35,0,0,0-1,7.15A26.85,26.85,0,0,0,75.07,97.75h.23A26.85,26.85,0,0,0,101.92,70.9,22.35,22.35,0,0,0,100.93,63.75Z" fill="#fff"></path>
          </g>
        </svg>