<svg class="header-center__logo" alt="Q by Livesense" viewBox="0 0 438 289" fill="#f2eddf" xmlns="http://www.w3.org/2000/svg">
                <g clip-path="url(#clip0_191_373)">
                <path d="M44.0311 221.872C38.7848 221.686 33.6577 223.455 29.6541 226.831V210.842C29.6511 210.763 29.6321 210.686 29.5983 210.615C29.5645 210.544 29.5166 210.481 29.4575 210.429C29.3984 210.377 29.3293 210.337 29.2544 210.313C29.1794 210.288 29.1002 210.279 29.0216 210.285H0.778431C0.2919 210.285 0 210.624 0 211.325V220.01C0 220.348 0.364887 220.566 0.900071 220.566H9.31708V250.296C9.31708 250.683 9.56034 251.07 10.3388 251.07H16.7367C16.8836 251.066 17.0278 251.029 17.1584 250.962C17.289 250.895 17.4027 250.8 17.4908 250.683L21.8209 245.143C22.8427 246.111 29.3865 251.167 41.5984 251.167C53.3481 251.167 67.8711 248.554 67.8711 236.919C67.8468 226.662 54.4185 221.872 44.0311 221.872ZM37.4872 243.135C32.6219 243.135 29.7514 240.571 29.7514 236.725C29.7514 232.879 33.3517 230.29 37.4872 230.29C41.1362 230.29 45.1988 232.589 45.1988 236.725C45.1988 240.862 42.012 243.135 37.4872 243.135Z"></path>
                <path d="M139.246 222.042H111.513C111.385 222.052 111.265 222.105 111.172 222.193C111.078 222.281 111.019 222.399 111.002 222.525V229.782C111.002 230.049 111.002 230.315 111.465 230.315H117.741L109.64 239.338L101.661 230.194H108.789C108.983 230.194 109.105 229.758 109.105 229.371V222.525C109.075 222.365 108.986 222.222 108.856 222.123C108.725 222.025 108.563 221.978 108.399 221.993H68.2606C67.7498 221.993 67.4092 222.38 67.4092 223.033V229.662C67.4092 229.976 67.7498 230.194 68.3093 230.194H77.7966L93.1467 247.586C93.4117 247.864 93.6191 248.19 93.7568 248.547C93.8946 248.904 93.9601 249.285 93.9495 249.667C93.9495 250.465 93.3413 251.336 91.8817 251.336C91.1931 251.379 90.5025 251.379 89.814 251.336C88.3903 249.493 86.5425 248.017 84.4259 247.032C82.3092 246.047 79.9857 245.582 77.6507 245.675C75.7775 245.675 69.331 247.199 69.331 252.207C69.3346 252.685 69.4167 253.158 69.5742 253.61C70.7662 258.327 78.0642 261.326 89.0355 261.326C93.9837 261.492 98.8919 260.392 103.291 258.133C105.664 256.949 107.839 255.407 109.737 253.561L131.145 230.29H139.44C139.44 230.29 139.756 229.855 139.756 229.589V222.477C139.756 222.211 139.513 222.042 139.246 222.042Z"></path>
                <path d="M49.821 278.332H39.2389C38.7523 278.332 38.6064 278.985 38.6064 279.3V282.952H21.8454V271.027H28.4136C28.7785 271.027 28.9731 270.785 28.9731 270.398V265.85C28.9731 265.197 28.6325 264.979 28.1946 264.979H0.705596C0.292044 264.979 0.048768 265.197 0.048768 265.536V270.374C0.0486965 270.449 0.0639441 270.523 0.0935711 270.592C0.123198 270.661 0.166591 270.724 0.22115 270.776C0.27571 270.828 0.3403 270.868 0.411016 270.895C0.481732 270.921 0.557122 270.933 0.632619 270.93H7.03052V282.856H0.754259C0.170422 282.856 0.000141538 283.17 0.000141538 283.436V288.274C-0.00650922 288.354 0.00271542 288.434 0.0272758 288.51C0.0518362 288.586 0.0912345 288.656 0.143237 288.717C0.195239 288.777 0.258818 288.827 0.330282 288.863C0.401745 288.9 0.479685 288.921 0.559642 288.927H49.9182C50.1858 288.927 50.5508 288.686 50.5508 288.105V279.155C50.5508 278.574 50.1859 278.332 49.821 278.332Z"></path>
                <path d="M81.0802 264.979H52.7884C52.5451 264.979 52.3262 265.173 52.3262 265.584V270.688C52.3262 270.882 52.5694 271.003 52.8857 271.003H59.2836V282.952H52.7154C52.5451 282.952 52.3262 283.122 52.3262 283.557V288.565C52.3262 288.782 52.4721 289.024 52.9343 289.024H81.2505C81.6154 289.024 81.6884 288.855 81.6884 288.468V283.412C81.6884 283.194 81.5424 283.073 81.2505 283.073H74.658V270.978H81.2505C81.3089 270.982 81.3674 270.973 81.4221 270.952C81.4769 270.932 81.5266 270.9 81.568 270.859C81.6094 270.818 81.6415 270.768 81.6623 270.714C81.683 270.659 81.6919 270.601 81.6884 270.543V265.221C81.6884 265.052 81.3235 264.979 81.0802 264.979Z"></path>
                <path d="M134.502 264.979H114.286C113.824 264.979 113.605 265.173 113.605 265.366V270.688C113.605 270.882 113.848 270.882 114.043 270.882H117.789L113.143 276.518L108.569 270.882H112.048C112.1 270.889 112.153 270.884 112.203 270.869C112.253 270.854 112.299 270.828 112.338 270.794C112.378 270.76 112.409 270.717 112.43 270.67C112.451 270.622 112.462 270.571 112.462 270.519V265.439C112.462 265.052 112.194 264.979 111.878 264.979H83.8294C83.7718 264.982 83.7155 264.997 83.6636 265.021C83.6116 265.046 83.5651 265.081 83.5267 265.124C83.4882 265.166 83.4587 265.216 83.4397 265.27C83.4206 265.324 83.4125 265.382 83.4158 265.439V270.398C83.4119 270.464 83.4226 270.531 83.4473 270.593C83.4719 270.655 83.5099 270.711 83.5585 270.757C83.6071 270.804 83.6652 270.838 83.7288 270.86C83.7924 270.881 83.8599 270.889 83.9267 270.882H90.3732L105.334 288.782C105.456 288.782 105.577 289.024 105.748 289.024H113.046C113.239 289.014 113.426 288.947 113.581 288.831L128.493 270.882H134.599C134.842 270.882 134.915 270.712 134.915 270.519V265.342C135.037 265.173 134.721 264.979 134.502 264.979Z"></path>
                <path d="M187.047 278.574H176.416C175.954 278.574 175.881 278.937 175.881 279.227V283.122H158.852V279.88H167.902C168.242 279.88 168.583 279.88 168.583 279.566V274.462C168.583 274.22 168.583 274.147 168.193 274.147H158.852V271.099H175.613V275.139C175.613 275.357 175.783 275.357 175.978 275.357H185.976C186.268 275.357 186.341 275.139 186.341 274.825V265.681C186.341 265.197 186.195 264.979 185.684 264.979H137.493C137.055 264.979 136.764 265.1 136.764 265.269V270.736C136.764 271.124 136.934 271.075 137.177 271.075H143.794V283.17H137.201C137.07 283.188 136.951 283.256 136.869 283.36C136.788 283.464 136.75 283.595 136.764 283.727V288.782C136.764 289.169 137.128 289.145 137.493 289.145H186.682C187.241 289.145 187.363 288.903 187.363 288.686V279.227C187.265 278.574 187.266 278.574 187.047 278.574Z"></path>
                <path d="M225.726 273.736C221.991 273.143 218.22 272.803 214.438 272.72H208.892C207.724 272.72 204.246 272.72 204.246 271.172C204.246 269.624 206.386 269.575 207.116 269.575H216.02C216.944 269.575 220.106 269.987 221.08 271.825C221.08 271.97 221.274 271.97 221.396 271.97H231.126C231.175 271.974 231.224 271.967 231.27 271.95C231.316 271.933 231.358 271.906 231.393 271.872C231.427 271.837 231.454 271.796 231.471 271.75C231.488 271.705 231.495 271.656 231.491 271.607V265.729C231.479 265.541 231.393 265.365 231.252 265.238C231.112 265.112 230.927 265.045 230.737 265.052H222.782C222.665 265.041 222.547 265.072 222.45 265.138C222.352 265.204 222.281 265.302 222.247 265.415L221.858 266.866C219.27 265.609 216.419 264.979 213.538 265.028H205.559C201.912 264.825 198.273 265.541 194.977 267.108C193.372 268.051 190.112 269.938 190.112 273.131C190.112 275.405 192.423 278.356 197.167 279.856C200.97 280.781 204.858 281.324 208.77 281.477H217.187C217.601 281.477 219.206 281.84 219.206 283.049C219.206 284.259 217.479 284.307 217.163 284.307H206.727C206.411 284.307 201.716 284.186 201.132 282.057C201.114 281.957 201.059 281.867 200.978 281.804C200.898 281.742 200.796 281.711 200.694 281.719H190.355C190.308 281.719 190.262 281.728 190.219 281.747C190.176 281.765 190.137 281.792 190.105 281.826C190.073 281.86 190.049 281.901 190.033 281.945C190.017 281.988 190.011 282.035 190.015 282.082V288.637C190.015 288.879 190.015 289.024 190.306 289.024H200.183C200.285 289.032 200.387 289.001 200.468 288.939C200.548 288.876 200.603 288.786 200.621 288.686L200.791 286.823C203.527 288.195 206.534 288.947 209.597 289.024H217.455C221.615 289.024 233.559 287.984 233.559 280.654C233.486 275.526 227.404 274.22 225.726 273.736Z"></path>
                <path d="M284.061 278.574H273.455C272.993 278.574 272.895 278.937 272.895 279.227V283.122H255.867V279.88H264.916C265.281 279.88 265.622 279.88 265.622 279.566V274.462C265.622 274.22 265.5 274.147 265.208 274.147H255.867V271.099H272.652V275.139C272.652 275.357 272.822 275.357 273.017 275.357H282.991C283.283 275.357 283.38 275.139 283.38 274.825V265.681C283.38 265.197 283.234 264.979 282.699 264.979H234.532C234.094 264.979 233.803 265.1 233.803 265.269V270.736C233.803 271.124 233.973 271.075 234.216 271.075H240.784V283.17H234.216C234.085 283.188 233.966 283.256 233.884 283.36C233.802 283.464 233.764 283.595 233.778 283.727V288.782C233.778 289.169 234.119 289.145 234.508 289.145H283.696C284.232 289.145 284.353 288.903 284.353 288.686V279.227C284.377 278.574 284.256 278.574 284.061 278.574Z"></path>
                <path d="M342.08 264.979H321.379C321.184 264.979 320.965 265.294 320.965 265.681V270.519C320.965 270.785 321.208 270.93 321.646 270.93H328.02V279.203L313.108 265.269C312.855 265.052 312.54 264.916 312.207 264.882H286.446C286.032 264.882 285.74 265.052 285.74 265.366V270.374C285.74 270.833 286.032 270.93 286.227 270.93H292.722V282.856H286.421C285.837 282.856 285.691 283.17 285.691 283.436V288.274C285.691 288.686 285.837 288.927 286.129 288.927H307.269C307.634 288.927 307.853 288.686 307.853 288.202V283.364C307.853 283.049 307.488 282.88 307.147 282.88H300.433V273.494L316.756 288.782C316.964 288.944 317.222 289.03 317.486 289.024H335.366C335.731 289.024 335.877 288.686 335.877 288.153V271.027H342.056C342.445 271.027 342.713 270.882 342.713 270.47V265.777C342.713 265.463 342.616 264.979 342.08 264.979Z"></path>
                <path d="M378.668 273.736C374.933 273.143 371.162 272.803 367.38 272.72H361.834C360.69 272.72 357.187 272.72 357.187 271.172C357.187 269.624 359.352 269.575 360.082 269.575H368.986C369.91 269.575 373.073 269.987 374.021 271.825C374.021 271.97 374.216 271.97 374.338 271.97H384.068C384.117 271.974 384.166 271.967 384.212 271.95C384.258 271.933 384.3 271.906 384.334 271.872C384.369 271.837 384.396 271.796 384.413 271.75C384.43 271.705 384.437 271.656 384.433 271.607V265.729C384.421 265.541 384.335 265.365 384.194 265.238C384.053 265.112 383.869 265.045 383.679 265.052H375.749C375.627 265.035 375.504 265.063 375.401 265.13C375.298 265.196 375.223 265.297 375.189 265.415L374.8 266.866C372.213 265.605 369.361 264.975 366.48 265.028H358.501C354.854 264.825 351.214 265.541 347.919 267.108C346.338 268.051 343.175 269.938 343.175 273.131C343.175 275.405 345.462 278.356 350.206 279.856C354.009 280.781 357.897 281.324 361.809 281.477H370.226C370.64 281.477 372.245 281.84 372.245 283.049C372.245 284.259 370.518 284.307 370.202 284.307H359.717C359.401 284.307 354.706 284.186 354.122 282.057C354.104 281.957 354.05 281.867 353.969 281.804C353.888 281.742 353.787 281.711 353.684 281.719H343.346C343.301 281.722 343.257 281.734 343.217 281.754C343.177 281.774 343.141 281.801 343.112 281.835C343.082 281.869 343.06 281.908 343.046 281.95C343.032 281.992 343.026 282.037 343.029 282.082V288.637C343.029 288.879 343.029 289.024 343.321 289.024H353.052C353.154 289.032 353.255 289.001 353.336 288.939C353.417 288.876 353.472 288.786 353.49 288.686L353.66 286.823C356.397 288.192 359.404 288.944 362.466 289.024H370.348C374.484 289.024 386.428 287.984 386.428 280.654C386.428 275.526 380.346 274.22 378.668 273.736Z"></path>
                <path d="M437.659 278.574H427.053C426.59 278.574 426.493 278.937 426.493 279.227V283.122H409.464V279.88H418.49C418.855 279.88 419.195 279.88 419.195 279.566V274.462C419.195 274.22 419.074 274.147 418.782 274.147H409.464V271.099H426.226V275.139C426.226 275.357 426.396 275.357 426.59 275.357H436.564C436.856 275.357 436.954 275.139 436.954 274.825V265.681C436.954 265.197 436.808 264.979 436.272 264.979H388.13C387.692 264.979 387.4 265.1 387.4 265.269V270.736C387.4 271.124 387.571 271.075 387.814 271.075H394.431V283.17H387.838C387.707 283.188 387.588 283.256 387.506 283.36C387.424 283.464 387.386 283.595 387.4 283.727V288.782C387.4 289.169 387.741 289.145 388.13 289.145H437.318C437.878 289.145 437.975 288.903 437.975 288.686V279.227C437.975 278.574 437.829 278.574 437.659 278.574Z"></path>
                <path d="M436.103 158.567H406.546C405.11 158.567 404.673 159.244 404.673 159.945V174.193C404.673 185.853 395.501 196.594 375.335 196.594C368.985 196.594 356.092 191.465 351.397 184.934C358.111 179.878 374.143 172.282 384.992 157.696L385.163 157.502C392.109 148.148 395.829 136.812 395.769 125.184H395.891C395.891 72.7882 308.437 30.3103 200.573 30.3103C199.745 30.3103 198.967 30.3103 198.14 30.3103C195.559 23.1554 191.233 16.7488 185.551 11.6642C179.869 6.57963 173.007 2.97585 165.58 1.17571C158.153 -0.62444 150.393 -0.564756 142.995 1.34934C135.597 3.26343 128.792 6.97214 123.19 12.1435C115.357 4.90175 105.24 0.585588 94.5649 -0.0693841C83.8896 -0.724357 73.3164 2.32248 64.6473 8.55169C55.9782 14.7809 49.75 23.8069 47.0242 34.0913C44.2984 44.3756 45.2438 55.2818 49.6992 64.9506C28.9972 77.1909 14.4013 91.971 8.34399 108.227C5.31112 115.135 3.79349 122.606 3.89222 130.143C3.89222 178.524 74.4393 223.3 200.281 223.3C228.637 223.455 256.884 219.801 284.256 212.438C297.806 225.356 328.676 253.827 364.315 253.827C434.692 253.827 437.976 191.296 437.976 170.25V160.042C437.976 159.244 437.538 158.567 436.103 158.567ZM69.2334 69.3048C58.3108 69.3048 49.4316 58.2499 49.4316 44.5825C49.4316 30.915 58.3108 19.8601 69.2334 19.8601C80.156 19.8601 89.0352 30.915 89.0352 44.5825C89.0352 58.2499 80.229 69.3048 69.2334 69.3048ZM114.943 44.5825C114.943 30.915 123.822 19.8601 134.769 19.8601C145.716 19.8601 154.571 30.915 154.571 44.5825C154.571 58.2499 145.692 69.3048 134.769 69.3048C123.847 69.3048 114.943 58.2499 114.943 44.5825ZM231.978 171.774C221.972 175.694 211.276 177.578 200.524 177.314C179.19 176.661 156.906 170.952 144.889 149.278C143.823 147.363 142.935 145.355 142.237 143.278C141.629 141.634 140.875 138.44 140.875 138.44C140.823 138.25 140.782 138.056 140.754 137.86C139.411 130.767 139.498 123.479 141.01 116.42C142.522 109.361 145.428 102.67 149.56 96.7365C160.628 81.666 178.606 76.9006 195.367 76.9006C224.559 76.9006 261.438 91.1002 260.392 130.554C259.856 150.681 248.666 165.292 231.978 171.774Z"></path>
                <path d="M62.8601 59.6046C56.219 59.6046 50.8428 52.8797 50.8428 44.5825C50.8428 36.2852 56.219 29.5604 62.8601 29.5604C69.5013 29.5604 74.9018 36.2852 74.9018 44.5825C74.9018 52.8797 69.5013 59.6046 62.8601 59.6046Z"></path>
                <path d="M62.8601 29.5604C56.219 29.5604 50.8428 36.2852 50.8428 44.5825C50.8428 52.8797 56.219 59.6046 62.8601 59.6046C69.5013 59.6046 74.9018 52.8797 74.9018 44.5825C74.9018 36.2852 69.5013 29.5604 62.8601 29.5604Z"></path>
                <path d="M128.396 59.6046C135.047 59.6046 140.438 52.879 140.438 44.5825C140.438 36.286 135.047 29.5604 128.396 29.5604C121.746 29.5604 116.354 36.286 116.354 44.5825C116.354 52.879 121.746 59.6046 128.396 59.6046Z"></path>
                </g>
                <defs>
                <clipPath id="clip0_191_373">
                <rect width="100%" height="100%"></rect>
                </clipPath>
                </defs>
              </svg>