<svg width="100%" height="100%" xmlns="http://www.w3.org/2000/svg" viewBox="0 0 21.9 40">
          <path class="st0" d="M21.5,26.1c-0.9-3-2.8-5.3-4.8-7.5c0,0-1.4,2-2.1,3c-0.3,0.5-1.5,2.1-1.5,2.1c0.9,1.3,1.8,2.5,2.2,3.2
    c0.4,0.7,0.6,1.5,0.6,2.3c0,2.7-2.2,4.9-4.9,4.9h0c-1.5,0-2.8-0.6-3.7-1.7c-0.8-0.9-1.2-2-1.2-3.3c0-0.8,0.2-1.6,0.6-2.3
    c0.7-1.4,4.3-5.9,4.4-6c0,0,0,0,0,0c0,0,0,0,0,0c0.9-1.1,2.3-3.1,3.4-4.9c-1.2-1.4-2.4-3.2-3.4-5.1c0,0,0,0,0,0c0,0,0,0,0,0
    c0.4-0.8,1-1.6,1.5-2.2c0.9-1,1.9-2,2.3-3.4C15,4.8,15,4.5,15,4.1C15,1.8,13.2,0,11,0c0,0,0,0,0,0c0,0,0,0,0,0
    C8.7,0,6.9,1.8,6.9,4.1c0,0.4,0,0.7,0.2,1.1c0.4,1.4,1.4,2.4,2.3,3.4c0.5,0.6,1.1,1.3,1.5,2.2c0,0,0,0,0,0c0,0,0,0,0,0
    c-1.2,2.3-2.8,4.5-4.2,6.1c-2.4,2.7-5.1,5.5-6.2,9.2C0.1,27.2,0,28,0,29c0,6,4.9,10.9,10.9,11c0,0,0.1,0,0.1,0
    c6-0.1,10.9-4.9,10.9-11C21.9,28,21.8,27.2,21.5,26.1z"></path>
        </svg>