<svg id="Layer_1" data-name="Layer 1" xmlns="http://www.w3.org/2000/svg" viewBox="0 0 432.68 248.25"><defs><style>.cls-1{fill:#241916;}</style></defs><path class="cls-1" d="M303.3,234.47c-42.21,11.27-85.12,12.61-128.39,9.08-30.81-2.52-61-7.75-90.18-18.38-20.62-7.53-40-17.33-56.12-32.61C17.24,181.79,8.65,169.31,6,153.51,2.78,134,9.1,117.06,20.85,101.85c9-11.63,20.66-20.19,33.21-27.93-9-26-3.52-47.8,19.8-63.28,15.76-10.45,39.29-11.7,60,5.62,9.6-8.29,20.7-13.23,33.58-13,20.69.39,35.93,10,45.07,28.48,1.83,3.71,3.75,4.49,7.44,4.51,42.75.22,84.6,6.06,124.87,21,23.43,8.68,45.4,20,63.09,38.17,9.83,10.12,17.31,21.68,19.11,36,2.32,18.41-2.84,34.82-15.79,48.08-6.45,6.61-14.29,11.88-21.63,17.58-3,2.33-6.36,4.18-9.59,6.27C380,203.3,332.41,228,303.3,234.47ZM281,134c-2.65-17.25-12.18-29.66-27.38-37.61-19.14-10-39.52-12.48-60.56-7.93-23.12,5-38.78,23-41,46.34-2.29,24.25,8.71,44.15,30.8,53.4,23.62,9.9,47.7,10,71.25-.4,20-8.81,29.38-28,26.88-53.8m-121.17-103C149,21.29,135.94,23.32,129,36c-5.81,10.59-5.71,21.47.5,31.84,8.39,14,25.1,13.83,33.63-.07,6.84-11.14,5.73-25.55-3.28-36.87M74.68,78.22c7.11.23,12.55-3,16.52-8.58,6.44-9.09,7.4-19,3.73-29.42-3.36-9.5-11.06-15.46-19.41-15.39-8.2.06-15.61,5.87-19.1,15.14C49.82,57.51,59.51,76.69,74.68,78.22Z"/><path class="cls-1" d="M127.08,68.06c-7-7.49-7.77-17.51-2.3-24.76,5.05-6.7,13.36-6.83,18.62-.3,5,6.19,4.92,17-.13,23.16C139.08,71.24,133.58,72,127.08,68.06Z"/><path class="cls-1" d="M76.68,51.71c-.56,4-.68,7.68-1.9,11-1.84,5-5.84,8.27-11.33,8.23-5.28,0-9-3.31-11.1-8a19.34,19.34,0,0,1,.23-17.26c2.3-4.58,5.72-7.6,11.27-7.52,5.37.07,8.52,3.21,10.81,7.51A33.36,33.36,0,0,1,76.68,51.71Z"/></svg>